<svg width="56" height="56" viewBox="0 0 56 56" fill="none" xmlns="http://www.w3.org/2000/svg">
<path fill-rule="evenodd" clip-rule="evenodd" d="M31.6417 2.92954C32.8073 3.29696 33.5999 4.37789 33.5999 5.60001V19.6L44.7999 19.6C45.844 19.6 46.8013 20.1809 47.2835 21.1069C47.7656 22.033 47.6925 23.1504 47.0938 24.0057L27.4938 52.0057C26.7929 53.0069 25.5237 53.4379 24.3581 53.0705C23.1925 52.7031 22.3999 51.6221 22.3999 50.4L22.3999 36.4H11.1999C10.1559 36.4 9.19852 35.8191 8.71637 34.8931C8.23422 33.967 8.30734 32.8496 8.90606 31.9943L28.5061 3.99431C29.2069 2.99312 30.4761 2.56213 31.6417 2.92954Z" fill="#FF7500"/>
</svg>
